<svg width="155" height="52" viewBox="0 0 155 52" fill="none" xmlns="http://www.w3.org/2000/svg">
<path d="M25.1004 42.1782V36.3375H17.6113H10.1564C10.1564 36.3375 8.85786 36.2849 8.37665 36.2094C7.86169 36.1285 7.4511 36.0555 7.11323 35.7866C6.77536 35.5178 6.75419 34.9912 6.75419 34.9912L6.62939 34.1386V32.7986V21.8354V10.9937C6.62939 10.9937 6.61049 10.0509 6.62939 9.52503C6.64829 8.99919 6.62939 8.47157 6.62939 7.95386C6.62939 7.44761 6.54385 6.93265 6.94193 6.60873C7.34002 6.28481 7.55808 6.34852 8.24141 6.34852H10.1222H25.1004V0.396249L9.09633 0.337166C9.09633 0.337166 7.01031 0.277505 5.67666 0.414327C4.87476 0.496594 4.42358 0.611273 3.69323 0.986107C2.84181 1.42308 2.3957 1.7984 1.81241 2.55724C1.30335 3.21951 1.06008 3.59536 0.854895 4.46998C0.451215 6.19068 0.683924 9.52503 0.683924 9.52503V22.1286V29.882V33.7758V35.7227V36.7474L0.718121 37.2939L0.752317 37.533L0.786514 37.7038C0.786514 37.7038 1.02628 38.7389 1.43625 39.4116C1.91501 40.1972 2.25698 40.5729 2.97511 41.1194C3.45501 41.4846 3.77843 41.6241 4.34298 41.8366C4.82173 42.0169 5.57407 42.1098 5.57407 42.1098L7.86525 42.1782L10.1564 42.1782H15.4911H25.1004Z" fill="#3E7DFC"/>
<path d="M11.0156 33.3209H16.9856V15.4876H27.604H29.0598C29.0598 15.4876 29.5325 15.4694 29.8039 15.5855C30.0313 15.6827 30.1505 15.7757 30.3215 15.9615C30.7021 16.375 30.7624 17.3631 30.7624 17.3631V18.8844V30.4648V42.0453C30.7624 42.0453 30.7624 43.2759 30.7098 43.9938C30.6647 44.6083 30.6077 44.7788 30.2568 45.0194C29.9885 45.2035 29.6448 45.1562 29.448 45.1562H28.8657H28.2187H11.0156V51.2755H30.7624C30.7624 51.2755 32.4312 51.303 33.4029 50.9115C34.1358 50.6163 34.5705 50.4057 35.125 49.8197C35.6796 49.2337 35.9126 48.787 36.1583 48C36.3292 47.4526 36.3879 46.5442 36.3879 46.5442V42.4195V14.6384C36.3879 13.8623 36.2743 13.3634 35.9184 12.5429C35.9184 12.5429 35.7151 12.1659 35.4404 11.7471C35.2524 11.4605 34.8231 10.9181 34.5936 10.7213L34.5921 10.72C33.9953 10.2082 33.8772 10.1069 33.1733 9.78582L33.1568 9.77826C32.8701 9.64749 32.7018 9.57066 32.3921 9.5004C32.0754 9.42855 31.566 9.42188 31.566 9.42188H29.3847H11.0156V33.3209Z" fill="#3E7DFC"/>
<path d="M57.0265 29.0485C55.4414 29.0485 54.0544 28.6852 52.8656 27.9587C51.6933 27.2322 50.7852 26.2003 50.1413 24.8628C49.4973 23.5089 49.1754 21.9321 49.1754 20.1324C49.1754 18.3161 49.4973 16.7393 50.1413 15.4019C50.7852 14.0645 51.7016 13.0325 52.8904 12.306C54.0792 11.5795 55.4744 11.2163 57.076 11.2163C58.4134 11.2163 59.5857 11.4722 60.5929 11.9841C61.6001 12.4959 62.3431 13.2142 62.8219 14.1388L61.0387 15.7486C60.1471 14.4112 58.8344 13.7425 57.1008 13.7425C55.5652 13.7425 54.3847 14.2956 53.5591 15.4019C52.7335 16.4916 52.3207 18.0685 52.3207 20.1324C52.3207 22.1798 52.7253 23.7566 53.5343 24.8628C54.3434 25.9691 55.4992 26.5222 57.0017 26.5222C58.8344 26.5222 60.1801 25.8453 61.0387 24.4913L62.8219 26.1012C62.3431 27.0423 61.6001 27.7688 60.5929 28.2807C59.5857 28.7925 58.3969 29.0485 57.0265 29.0485ZM72.3918 29.0485C70.8232 29.0485 69.461 28.6935 68.3052 27.9835C67.1495 27.257 66.2661 26.225 65.6552 24.8876C65.0443 23.5502 64.7388 21.9651 64.7388 20.1324C64.7388 18.2996 65.0443 16.7145 65.6552 15.3771C66.2661 14.0397 67.1495 13.016 68.3052 12.306C69.461 11.5795 70.8232 11.2163 72.3918 11.2163C73.9604 11.2163 75.3143 11.5795 76.4535 12.306C77.6093 13.016 78.4927 14.0397 79.1036 15.3771C79.7145 16.7145 80.02 18.2996 80.02 20.1324C80.02 21.9651 79.7145 23.5502 79.1036 24.8876C78.4927 26.225 77.6093 27.257 76.4535 27.9835C75.3143 28.6935 73.9604 29.0485 72.3918 29.0485ZM72.3918 26.547C73.7787 26.547 74.8685 25.9774 75.661 24.8381C76.4701 23.6988 76.8746 22.1302 76.8746 20.1324C76.8746 18.1345 76.4701 16.5659 75.661 15.4267C74.8685 14.2709 73.7787 13.693 72.3918 13.693C70.9883 13.693 69.8821 14.2709 69.073 15.4267C68.2805 16.5659 67.8842 18.1345 67.8842 20.1324C67.8842 22.1302 68.2805 23.6988 69.073 24.8381C69.8821 25.9774 70.9883 26.547 72.3918 26.547ZM83.1075 11.464H89.0516C91.3797 11.464 93.1298 12.1657 94.3021 13.5692C95.491 14.9561 96.0854 17.0283 96.0854 19.7856C96.0854 21.9321 95.8212 23.6658 95.2928 24.9867C94.7645 26.3076 93.9389 27.2735 92.8161 27.8844C91.6934 28.4953 90.2156 28.8008 88.3829 28.8008H83.1075V11.464ZM88.7544 26.2746C90.2569 26.2746 91.3301 25.771 91.9741 24.7638C92.6345 23.7566 92.9647 22.0972 92.9647 19.7856C92.9647 17.7548 92.6428 16.2853 91.9988 15.3771C91.3714 14.4525 90.3642 13.9902 88.9773 13.9902H86.2281V26.2746H88.7544ZM99.3482 11.464H110.469V13.9902H102.469V18.4235H109.626V20.9497H102.469V26.2746H110.469V28.8008H99.3482V11.464ZM113.823 11.464H116.968V26.2746H125.191V28.8008H113.823V11.464ZM128.673 11.464H131.818V28.8008H128.673V11.464ZM140.721 19.9095L135.595 11.464H139.136L142.554 17.4576L145.947 11.464H149.514L144.362 19.9095L149.736 28.8008H146.244L142.554 22.51L138.864 28.8008H135.347L140.721 19.9095Z" fill="#323232"/>
<path d="M49.7318 38.4858H51.0589V45.8008H49.7318V38.4858ZM54.6169 39.4681H52.412V38.4858H58.1386V39.4681H55.9336V45.8008H54.6169V39.4681ZM64.0259 45.9053C63.5034 45.9053 63.0227 45.7973 62.5838 45.5813C62.1519 45.3654 61.8001 45.0588 61.5284 44.6617L62.3121 43.9093C62.535 44.181 62.8067 44.404 63.1272 44.5781C63.4546 44.7523 63.7681 44.8394 64.0677 44.8394C64.423 44.8394 64.7052 44.7558 64.9142 44.5886C65.1301 44.4214 65.2381 44.2019 65.2381 43.9302C65.2381 43.7352 65.2033 43.5749 65.1336 43.4495C65.0639 43.3172 64.9351 43.1883 64.747 43.0629C64.5589 42.9305 64.2697 42.7668 63.8796 42.5717C63.3641 42.3209 62.9565 42.0841 62.657 41.8611C62.3574 41.6382 62.1379 41.4013 61.9986 41.1505C61.8593 40.8997 61.7896 40.6106 61.7896 40.2832C61.7896 39.907 61.8871 39.5761 62.0822 39.2904C62.2842 38.9978 62.5629 38.7749 62.9182 38.6216C63.2735 38.4614 63.6845 38.3813 64.1513 38.3813C64.6599 38.3813 65.1127 38.4823 65.5098 38.6843C65.9139 38.8864 66.21 39.1615 66.3981 39.5099L65.5516 40.1369C65.3844 39.9209 65.1824 39.7537 64.9455 39.6353C64.7156 39.5099 64.4683 39.4472 64.2036 39.4472C63.8622 39.4472 63.594 39.5203 63.3989 39.6666C63.2108 39.806 63.1168 40.0045 63.1168 40.2623C63.1168 40.4225 63.1586 40.5618 63.2422 40.6803C63.3327 40.7917 63.4895 40.9171 63.7124 41.0565C63.9423 41.1958 64.2906 41.3769 64.7574 41.5999C65.4192 41.9134 65.8825 42.2408 66.1473 42.5822C66.419 42.9166 66.5548 43.3381 66.5548 43.8466C66.5548 44.2577 66.4503 44.6199 66.2413 44.9334C66.0323 45.24 65.7362 45.4803 65.3531 45.6545C64.9699 45.8217 64.5275 45.9053 64.0259 45.9053ZM70.0863 45.9053C69.2643 45.9053 68.6164 45.6649 68.1426 45.1842C67.6759 44.6966 67.4425 44.0312 67.4425 43.1883C67.4425 42.3453 67.6759 41.6835 68.1426 41.2028C68.6164 40.7151 69.2643 40.4713 70.0863 40.4713C70.9084 40.4713 71.5528 40.7151 72.0196 41.2028C72.4933 41.6835 72.7302 42.3453 72.7302 43.1883C72.7302 44.0312 72.4933 44.6966 72.0196 45.1842C71.5528 45.6649 70.9084 45.9053 70.0863 45.9053ZM70.0863 45.017C70.5392 45.017 70.8945 44.8568 71.1522 44.5363C71.41 44.2089 71.5389 43.7595 71.5389 43.1883C71.5389 42.617 71.41 42.1711 71.1522 41.8507C70.8945 41.5232 70.5392 41.3595 70.0863 41.3595C69.6335 41.3595 69.2782 41.5232 69.0204 41.8507C68.7627 42.1711 68.6338 42.617 68.6338 43.1883C68.6338 43.7595 68.7627 44.2089 69.0204 44.5363C69.2782 44.8568 69.6335 45.017 70.0863 45.017ZM75.2201 45.9053C74.7951 45.9053 74.4711 45.7903 74.2482 45.5604C74.0322 45.3236 73.9243 44.9787 73.9243 44.5259V38.0469H75.1156V44.5363C75.1156 44.7244 75.1539 44.8603 75.2305 44.9439C75.3071 45.0205 75.4325 45.0588 75.6067 45.0588C75.7809 45.0588 75.9725 45.0135 76.1815 44.923L76.3591 45.5813C76.0595 45.7973 75.6799 45.9053 75.2201 45.9053ZM78.9805 45.9053C78.3814 45.9053 77.9285 45.7067 77.622 45.3096C77.3155 44.9125 77.1622 44.3238 77.1622 43.5436V40.5758H78.3431V43.554C78.3431 44.0278 78.4232 44.3796 78.5834 44.6095C78.7436 44.8324 78.991 44.9439 79.3254 44.9439C79.7225 44.9439 80.0464 44.7941 80.2972 44.4945C80.555 44.195 80.6839 43.8222 80.6839 43.3764V40.5758H81.8647V44.5468C81.8647 44.9299 81.8961 45.3479 81.9588 45.8008H80.8406C80.7779 45.4664 80.7466 45.1598 80.7466 44.8812H80.7152C80.5759 45.1947 80.3495 45.4455 80.036 45.6336C79.7294 45.8147 79.3776 45.9053 78.9805 45.9053ZM85.3406 45.9053C84.832 45.9053 84.4314 45.759 84.1388 45.4664C83.8532 45.1668 83.7104 44.7558 83.7104 44.2333V41.464H82.7699V40.5758H83.7104V39.2173L84.8599 38.8724H84.9017V40.5758H86.4065V41.464H84.9017V44.0765C84.9017 44.39 84.9678 44.6234 85.1002 44.7767C85.2395 44.923 85.452 44.9961 85.7377 44.9961C86.0442 44.9961 86.295 44.9543 86.4901 44.8707L86.5528 45.7067C86.2671 45.8391 85.8631 45.9053 85.3406 45.9053ZM89.4709 45.9053C88.8718 45.9053 88.4189 45.7067 88.1124 45.3096C87.8059 44.9125 87.6526 44.3238 87.6526 43.5436V40.5758H88.8335V43.554C88.8335 44.0278 88.9136 44.3796 89.0738 44.6095C89.234 44.8324 89.4814 44.9439 89.8158 44.9439C90.2129 44.9439 90.5368 44.7941 90.7876 44.4945C91.0454 44.195 91.1743 43.8222 91.1743 43.3764V40.5758H92.3551V44.5468C92.3551 44.9299 92.3865 45.3479 92.4492 45.8008H91.331C91.2683 45.4664 91.237 45.1598 91.237 44.8812H91.2056C91.0663 45.1947 90.8399 45.4455 90.5264 45.6336C90.2198 45.8147 89.868 45.9053 89.4709 45.9053ZM96.1236 45.9053C95.3015 45.9053 94.6536 45.6649 94.1799 45.1842C93.7131 44.6966 93.4797 44.0312 93.4797 43.1883C93.4797 42.3453 93.7131 41.6835 94.1799 41.2028C94.6536 40.7151 95.3015 40.4713 96.1236 40.4713C96.9456 40.4713 97.59 40.7151 98.0568 41.2028C98.5305 41.6835 98.7674 42.3453 98.7674 43.1883C98.7674 44.0312 98.5305 44.6966 98.0568 45.1842C97.59 45.6649 96.9456 45.9053 96.1236 45.9053ZM96.1236 45.017C96.5764 45.017 96.9317 44.8568 97.1895 44.5363C97.4472 44.2089 97.5761 43.7595 97.5761 43.1883C97.5761 42.617 97.4472 42.1711 97.1895 41.8507C96.9317 41.5232 96.5764 41.3595 96.1236 41.3595C95.6707 41.3595 95.3154 41.5232 95.0577 41.8507C94.7999 42.1711 94.671 42.617 94.671 43.1883C94.671 43.7595 94.7999 44.2089 95.0577 44.5363C95.3154 44.8568 95.6707 45.017 96.1236 45.017ZM99.8674 41.9343C99.8674 41.2864 99.8535 40.8335 99.8256 40.5758H100.933C100.968 40.9032 100.986 41.2097 100.986 41.4954H101.006C101.139 41.1819 101.365 40.9346 101.686 40.7534C102.006 40.5653 102.362 40.4713 102.752 40.4713C103.358 40.4713 103.814 40.6733 104.121 41.0774C104.427 41.4745 104.58 42.0666 104.58 42.8539V45.8008H103.389V42.8434C103.389 42.3558 103.309 41.997 103.149 41.7671C102.995 41.5372 102.748 41.4222 102.407 41.4222C102.003 41.4222 101.675 41.565 101.424 41.8507C101.174 42.1293 101.048 42.4916 101.048 42.9375V45.8008H99.8674V41.9343ZM107.533 45.9053C107.102 45.9053 106.718 45.8182 106.384 45.644C106.05 45.4699 105.813 45.2365 105.673 44.9439L106.426 44.4318C106.544 44.613 106.701 44.7558 106.896 44.8603C107.098 44.9648 107.311 45.017 107.533 45.017C107.784 45.017 107.993 44.9508 108.16 44.8185C108.328 44.6791 108.411 44.5015 108.411 44.2855C108.411 44.1253 108.349 43.9929 108.223 43.8884C108.105 43.7839 107.857 43.6585 107.481 43.5122C106.861 43.2754 106.422 43.035 106.165 42.7912C105.914 42.5473 105.788 42.2443 105.788 41.882C105.788 41.4571 105.959 41.1157 106.3 40.8579C106.642 40.6002 107.095 40.4713 107.659 40.4713C108.042 40.4713 108.383 40.5444 108.683 40.6907C108.99 40.837 109.23 41.046 109.404 41.3177L108.704 41.8402C108.592 41.687 108.45 41.5685 108.275 41.4849C108.101 41.4013 107.91 41.3595 107.701 41.3595C107.478 41.3595 107.3 41.4048 107.168 41.4954C107.035 41.579 106.969 41.6974 106.969 41.8507C106.969 41.9621 106.997 42.0562 107.053 42.1328C107.109 42.2025 107.21 42.2756 107.356 42.3523C107.509 42.4289 107.739 42.5264 108.046 42.6449C108.631 42.8748 109.035 43.1047 109.258 43.3346C109.481 43.5645 109.592 43.864 109.592 44.2333C109.592 44.7349 109.404 45.1389 109.028 45.4455C108.652 45.752 108.154 45.9053 107.533 45.9053ZM113.552 38.4858H115.893C116.736 38.4858 117.373 38.6808 117.805 39.071C118.244 39.4541 118.463 40.0219 118.463 40.7743C118.463 41.5755 118.237 42.1851 117.784 42.6031C117.338 43.0141 116.69 43.2196 115.84 43.2196H114.869V45.8008H113.552V38.4858ZM115.955 42.1537C116.352 42.1537 116.656 42.0423 116.865 41.8193C117.074 41.5894 117.178 41.2585 117.178 40.8266C117.178 40.4086 117.067 40.0916 116.844 39.8756C116.628 39.6597 116.307 39.5517 115.882 39.5517H114.869V42.1537H115.955ZM124.325 40.5758L122.309 45.8008H121.264L119.247 40.5758H120.469L121.786 44.3587L123.103 40.5758H124.325ZM127.363 45.9053C126.855 45.9053 126.454 45.759 126.162 45.4664C125.876 45.1668 125.733 44.7558 125.733 44.2333V41.464H124.793V40.5758H125.733V39.2173L126.883 38.8724H126.925V40.5758H128.429V41.464H126.925V44.0765C126.925 44.39 126.991 44.6234 127.123 44.7767C127.262 44.923 127.475 44.9961 127.761 44.9961C128.067 44.9961 128.318 44.9543 128.513 44.8707L128.576 45.7067C128.29 45.8391 127.886 45.9053 127.363 45.9053ZM130.574 45.9053C130.337 45.9053 130.142 45.8286 129.989 45.6754C129.843 45.5151 129.77 45.3131 129.77 45.0693C129.77 44.8324 129.843 44.6373 129.989 44.4841C130.142 44.3308 130.337 44.2542 130.574 44.2542C130.811 44.2542 131.003 44.3308 131.149 44.4841C131.302 44.6304 131.379 44.8254 131.379 45.0693C131.379 45.3131 131.302 45.5151 131.149 45.6754C131.003 45.8286 130.811 45.9053 130.574 45.9053ZM135.68 38.4858H137.007V44.7349H140.477V45.8008H135.68V38.4858ZM143.354 45.9053C142.845 45.9053 142.445 45.759 142.152 45.4664C141.867 45.1668 141.724 44.7558 141.724 44.2333V41.464H140.783V40.5758H141.724V39.2173L142.873 38.8724H142.915V40.5758H144.42V41.464H142.915V44.0765C142.915 44.39 142.981 44.6234 143.114 44.7767C143.253 44.923 143.465 44.9961 143.751 44.9961C144.058 44.9961 144.308 44.9543 144.503 44.8707L144.566 45.7067C144.281 45.8391 143.876 45.9053 143.354 45.9053ZM147.62 45.9053C146.937 45.9053 146.401 45.6545 146.011 45.1529C145.621 44.6513 145.426 43.9651 145.426 43.0942C145.426 42.5648 145.516 42.105 145.697 41.7148C145.879 41.3177 146.136 41.0112 146.471 40.7952C146.805 40.5793 147.199 40.4713 147.652 40.4713C148.272 40.4713 148.759 40.7012 149.115 41.161H149.135V38.0469H150.316V44.4318C150.316 45.1355 150.327 45.5918 150.348 45.8008H149.24C149.226 45.6614 149.219 45.4141 149.219 45.0588H149.198C149.038 45.3096 148.811 45.5151 148.519 45.6754C148.233 45.8286 147.934 45.9053 147.62 45.9053ZM147.84 44.9857C148.23 44.9857 148.54 44.8707 148.77 44.6408C149.007 44.4109 149.125 44.1009 149.125 43.7108V42.6762C149.125 42.2931 149.003 41.9796 148.759 41.7357C148.522 41.4849 148.216 41.3595 147.84 41.3595C147.443 41.3595 147.136 41.5128 146.92 41.8193C146.711 42.1259 146.607 42.5578 146.607 43.1151C146.607 43.7073 146.715 44.1671 146.93 44.4945C147.146 44.822 147.449 44.9857 147.84 44.9857ZM152.55 45.9053C152.313 45.9053 152.118 45.8286 151.965 45.6754C151.818 45.5151 151.745 45.3131 151.745 45.0693C151.745 44.8324 151.818 44.6373 151.965 44.4841C152.118 44.3308 152.313 44.2542 152.55 44.2542C152.787 44.2542 152.978 44.3308 153.125 44.4841C153.278 44.6304 153.354 44.8254 153.354 45.0693C153.354 45.3131 153.278 45.5151 153.125 45.6754C152.978 45.8286 152.787 45.9053 152.55 45.9053Z" fill="#323232"/>
</svg>
