<svg width="810" height="915" viewBox="0 0 810 915" fill="none" xmlns="http://www.w3.org/2000/svg">
<path d="M499 612V526.596H389.493H280.485C280.485 526.596 261.497 525.826 254.461 524.722C246.931 523.54 240.927 522.472 235.987 518.541C231.046 514.609 230.737 506.91 230.737 506.91L228.912 494.442V474.849V314.542V156.012C228.912 156.012 228.636 142.226 228.912 134.537C229.188 126.848 228.912 119.133 228.912 111.562C228.912 104.16 227.661 96.6302 233.482 91.8937C239.303 87.1573 242.491 88.0889 252.483 88.0889H279.985H499V1.05324L264.984 0.189312C264.984 0.189312 234.482 -0.683066 214.981 1.31758C203.255 2.52052 196.658 4.19738 185.979 9.6783C173.529 16.0679 167.006 21.5559 158.477 32.6518C151.033 42.3356 147.476 47.8315 144.476 60.6203C138.573 85.7808 141.976 134.537 141.976 134.537V318.829V432.202V489.138V517.606V532.589L142.476 540.58L142.976 544.076L143.476 546.573C143.476 546.573 146.982 561.709 152.977 571.545C159.977 583.032 164.977 588.526 175.478 596.517C182.495 601.857 187.225 603.897 195.479 607.005C202.48 609.641 213.481 611 213.481 611L246.983 612L280.485 612H358.49H499Z" fill="#3E7DFC"/>
<path d="M293 482.457H380.294V221.695H535.559H556.847C556.847 221.695 563.758 221.428 567.727 223.126C571.052 224.548 572.795 225.907 575.296 228.624C580.861 234.67 581.742 249.119 581.742 249.119V271.364V440.696V610.027C581.742 610.027 581.742 628.023 580.973 638.52C580.314 647.505 579.48 649.997 574.35 653.516C570.427 656.208 565.401 655.516 562.523 655.516H554.008H544.547H293V744.994H581.742C581.742 744.994 606.144 745.396 620.353 739.672C631.069 735.355 637.425 732.276 645.534 723.707C653.643 715.138 657.049 708.607 660.643 697.099C663.141 689.095 664 675.812 664 675.812V615.5V209.277C664 197.929 662.338 190.634 657.135 178.637C657.135 178.637 654.162 173.123 650.146 167C647.397 162.81 641.12 154.879 637.763 152L637.742 151.982C629.015 144.498 627.288 143.017 616.995 138.322L616.753 138.211C612.562 136.299 610.1 135.176 605.572 134.148C600.941 133.098 593.493 133 593.493 133H561.597H293V482.457Z" fill="#3E7DFC"/>
<path d="M157.578 842.475C154.538 842.475 151.878 841.778 149.598 840.385C147.349 838.992 145.608 837.012 144.373 834.447C143.138 831.851 142.52 828.827 142.52 825.375C142.52 821.892 143.138 818.867 144.373 816.302C145.608 813.737 147.365 811.758 149.645 810.365C151.925 808.972 154.601 808.275 157.673 808.275C160.238 808.275 162.486 808.766 164.418 809.747C166.349 810.729 167.774 812.107 168.693 813.88L165.273 816.967C163.563 814.402 161.045 813.12 157.72 813.12C154.775 813.12 152.511 814.181 150.928 816.302C149.344 818.392 148.553 821.417 148.553 825.375C148.553 829.302 149.328 832.326 150.88 834.447C152.432 836.569 154.648 837.63 157.53 837.63C161.045 837.63 163.626 836.332 165.273 833.735L168.693 836.822C167.774 838.627 166.349 840.021 164.418 841.002C162.486 841.984 160.206 842.475 157.578 842.475ZM187.046 842.475C184.038 842.475 181.426 841.794 179.209 840.433C176.992 839.039 175.298 837.06 174.126 834.495C172.955 831.93 172.369 828.89 172.369 825.375C172.369 821.86 172.955 818.82 174.126 816.255C175.298 813.69 176.992 811.727 179.209 810.365C181.426 808.972 184.038 808.275 187.046 808.275C190.055 808.275 192.651 808.972 194.836 810.365C197.053 811.727 198.747 813.69 199.919 816.255C201.091 818.82 201.676 821.86 201.676 825.375C201.676 828.89 201.091 831.93 199.919 834.495C198.747 837.06 197.053 839.039 194.836 840.433C192.651 841.794 190.055 842.475 187.046 842.475ZM187.046 837.677C189.706 837.677 191.796 836.585 193.316 834.4C194.868 832.215 195.644 829.207 195.644 825.375C195.644 821.543 194.868 818.535 193.316 816.35C191.796 814.133 189.706 813.025 187.046 813.025C184.355 813.025 182.233 814.133 180.681 816.35C179.161 818.535 178.401 821.543 178.401 825.375C178.401 829.207 179.161 832.215 180.681 834.4C182.233 836.585 184.355 837.677 187.046 837.677ZM207.598 808.75H218.998C223.463 808.75 226.82 810.096 229.068 812.787C231.348 815.447 232.488 819.422 232.488 824.71C232.488 828.827 231.981 832.152 230.968 834.685C229.955 837.218 228.371 839.071 226.218 840.242C224.065 841.414 221.23 842 217.715 842H207.598V808.75ZM218.428 837.155C221.31 837.155 223.368 836.189 224.603 834.257C225.87 832.326 226.503 829.143 226.503 824.71C226.503 820.815 225.885 817.997 224.65 816.255C223.447 814.482 221.515 813.595 218.855 813.595H213.583V837.155H218.428ZM238.746 808.75H260.073V813.595H244.731V822.097H258.458V826.942H244.731V837.155H260.073V842H238.746V808.75ZM266.506 808.75H272.539V837.155H288.309V842H266.506V808.75ZM294.987 808.75H301.019V842H294.987V808.75ZM318.094 824.947L308.262 808.75H315.054L321.609 820.245L328.117 808.75H334.957L325.077 824.947L335.384 842H328.687L321.609 829.935L314.532 842H307.787L318.094 824.947ZM354.336 808.75H360.368V842H354.336V808.75ZM376.541 813.215H366.518V808.75H392.548V813.215H382.526V842H376.541V813.215ZM419.309 842.475C416.934 842.475 414.749 841.984 412.754 841.002C410.791 840.021 409.192 838.627 407.957 836.822L411.519 833.402C412.533 834.637 413.768 835.651 415.224 836.442C416.713 837.234 418.138 837.63 419.499 837.63C421.114 837.63 422.397 837.25 423.347 836.49C424.328 835.73 424.819 834.732 424.819 833.497C424.819 832.611 424.661 831.882 424.344 831.312C424.028 830.711 423.442 830.125 422.587 829.555C421.732 828.953 420.418 828.209 418.644 827.322C416.301 826.182 414.448 825.106 413.087 824.092C411.725 823.079 410.728 822.002 410.094 820.862C409.461 819.722 409.144 818.408 409.144 816.92C409.144 815.21 409.588 813.706 410.474 812.407C411.393 811.077 412.659 810.064 414.274 809.367C415.889 808.639 417.758 808.275 419.879 808.275C422.191 808.275 424.249 808.734 426.054 809.652C427.891 810.571 429.237 811.822 430.092 813.405L426.244 816.255C425.484 815.273 424.566 814.513 423.489 813.975C422.444 813.405 421.32 813.12 420.117 813.12C418.565 813.12 417.346 813.452 416.459 814.117C415.604 814.751 415.177 815.653 415.177 816.825C415.177 817.553 415.367 818.187 415.747 818.725C416.158 819.232 416.871 819.802 417.884 820.435C418.929 821.068 420.513 821.892 422.634 822.905C425.643 824.33 427.748 825.818 428.952 827.37C430.187 828.89 430.804 830.806 430.804 833.117C430.804 834.986 430.329 836.632 429.379 838.057C428.429 839.451 427.083 840.543 425.342 841.335C423.6 842.095 421.589 842.475 419.309 842.475ZM449.469 842.475C446.461 842.475 443.848 841.794 441.632 840.433C439.415 839.039 437.721 837.06 436.549 834.495C435.377 831.93 434.792 828.89 434.792 825.375C434.792 821.86 435.377 818.82 436.549 816.255C437.721 813.69 439.415 811.727 441.632 810.365C443.848 808.972 446.461 808.275 449.469 808.275C452.477 808.275 455.074 808.972 457.259 810.365C459.476 811.727 461.17 813.69 462.342 816.255C463.513 818.82 464.099 821.86 464.099 825.375C464.099 828.89 463.513 831.93 462.342 834.495C461.17 837.06 459.476 839.039 457.259 840.433C455.074 841.794 452.477 842.475 449.469 842.475ZM449.469 837.677C452.129 837.677 454.219 836.585 455.739 834.4C457.291 832.215 458.067 829.207 458.067 825.375C458.067 821.543 457.291 818.535 455.739 816.35C454.219 814.133 452.129 813.025 449.469 813.025C446.777 813.025 444.656 814.133 443.104 816.35C441.584 818.535 440.824 821.543 440.824 825.375C440.824 829.207 441.584 832.215 443.104 834.4C444.656 836.585 446.777 837.677 449.469 837.677ZM469.973 808.75H476.006V837.155H491.776V842H469.973V808.75ZM508.321 842.475C504.172 842.475 501.037 841.351 498.916 839.102C496.794 836.822 495.733 833.466 495.733 829.032V808.75H501.766V828.937C501.766 834.732 503.951 837.63 508.321 837.63C510.474 837.63 512.105 836.902 513.213 835.445C514.322 833.988 514.876 831.819 514.876 828.937V808.75H520.861V829.032C520.861 833.466 519.8 836.822 517.678 839.102C515.557 841.351 512.437 842.475 508.321 842.475ZM535.735 813.215H525.712V808.75H551.742V813.215H541.72V842H535.735V813.215ZM557.873 808.75H563.906V842H557.873V808.75ZM585.493 842.475C582.485 842.475 579.873 841.794 577.656 840.433C575.439 839.039 573.745 837.06 572.573 834.495C571.402 831.93 570.816 828.89 570.816 825.375C570.816 821.86 571.402 818.82 572.573 816.255C573.745 813.69 575.439 811.727 577.656 810.365C579.873 808.972 582.485 808.275 585.493 808.275C588.502 808.275 591.098 808.972 593.283 810.365C595.5 811.727 597.194 813.69 598.366 816.255C599.538 818.82 600.123 821.86 600.123 825.375C600.123 828.89 599.538 831.93 598.366 834.495C597.194 837.06 595.5 839.039 593.283 840.433C591.098 841.794 588.502 842.475 585.493 842.475ZM585.493 837.677C588.153 837.677 590.243 836.585 591.763 834.4C593.315 832.215 594.091 829.207 594.091 825.375C594.091 821.543 593.315 818.535 591.763 816.35C590.243 814.133 588.153 813.025 585.493 813.025C582.802 813.025 580.68 814.133 579.128 816.35C577.608 818.535 576.848 821.543 576.848 825.375C576.848 829.207 577.608 832.215 579.128 834.4C580.68 836.585 582.802 837.677 585.493 837.677ZM632.075 808.75V842H626.47L611.983 818.677V842H605.998V808.75H611.935L626.09 831.692V808.75H632.075ZM649.287 842.475C646.912 842.475 644.727 841.984 642.732 841.002C640.769 840.021 639.17 838.627 637.935 836.822L641.497 833.402C642.51 834.637 643.745 835.651 645.202 836.442C646.69 837.234 648.115 837.63 649.477 837.63C651.092 837.63 652.375 837.25 653.325 836.49C654.306 835.73 654.797 834.732 654.797 833.497C654.797 832.611 654.639 831.882 654.322 831.312C654.005 830.711 653.42 830.125 652.565 829.555C651.71 828.953 650.395 828.209 648.622 827.322C646.279 826.182 644.426 825.106 643.065 824.092C641.703 823.079 640.705 822.002 640.072 820.862C639.439 819.722 639.122 818.408 639.122 816.92C639.122 815.21 639.565 813.706 640.452 812.407C641.37 811.077 642.637 810.064 644.252 809.367C645.867 808.639 647.735 808.275 649.857 808.275C652.169 808.275 654.227 808.734 656.032 809.652C657.869 810.571 659.215 811.822 660.07 813.405L656.222 816.255C655.462 815.273 654.544 814.513 653.467 813.975C652.422 813.405 651.298 813.12 650.095 813.12C648.543 813.12 647.324 813.452 646.437 814.117C645.582 814.751 645.155 815.653 645.155 816.825C645.155 817.553 645.345 818.187 645.725 818.725C646.136 819.232 646.849 819.802 647.862 820.435C648.907 821.068 650.49 821.892 652.612 822.905C655.62 824.33 657.726 825.818 658.93 827.37C660.165 828.89 660.782 830.806 660.782 833.117C660.782 834.986 660.307 836.632 659.357 838.057C658.407 839.451 657.061 840.543 655.32 841.335C653.578 842.095 651.567 842.475 649.287 842.475Z" fill="#22365D"/>
<path d="M312.293 870.75H322.933C326.765 870.75 329.662 871.637 331.626 873.41C333.621 875.152 334.618 877.732 334.618 881.152C334.618 884.794 333.589 887.565 331.531 889.465C329.504 891.333 326.559 892.267 322.696 892.267H318.278V904H312.293V870.75ZM323.218 887.422C325.023 887.422 326.401 886.916 327.351 885.902C328.301 884.857 328.776 883.353 328.776 881.39C328.776 879.49 328.269 878.049 327.256 877.067C326.274 876.086 324.817 875.595 322.886 875.595H318.278V887.422H323.218ZM361.264 880.25L352.096 904H347.346L338.179 880.25H343.736L349.721 897.445L355.706 880.25H361.264ZM375.073 904.475C372.761 904.475 370.941 903.81 369.611 902.48C368.312 901.118 367.663 899.25 367.663 896.875V884.287H363.388V880.25H367.663V874.075L372.888 872.507H373.078V880.25H379.918V884.287H373.078V896.162C373.078 897.587 373.379 898.648 373.981 899.345C374.614 900.01 375.58 900.342 376.878 900.342C378.271 900.342 379.411 900.152 380.298 899.772L380.583 903.572C379.285 904.174 377.448 904.475 375.073 904.475ZM389.667 904.475C388.591 904.475 387.704 904.127 387.007 903.43C386.342 902.702 386.01 901.783 386.01 900.675C386.01 899.598 386.342 898.712 387.007 898.015C387.704 897.318 388.591 896.97 389.667 896.97C390.744 896.97 391.615 897.318 392.28 898.015C392.977 898.68 393.325 899.567 393.325 900.675C393.325 901.783 392.977 902.702 392.28 903.43C391.615 904.127 390.744 904.475 389.667 904.475ZM412.877 870.75H418.91V899.155H434.68V904H412.877V870.75ZM447.757 904.475C445.446 904.475 443.625 903.81 442.295 902.48C440.996 901.118 440.347 899.25 440.347 896.875V884.287H436.072V880.25H440.347V874.075L445.572 872.507H445.762V880.25H452.602V884.287H445.762V896.162C445.762 897.587 446.063 898.648 446.665 899.345C447.298 900.01 448.264 900.342 449.562 900.342C450.956 900.342 452.096 900.152 452.982 899.772L453.267 903.572C451.969 904.174 450.132 904.475 447.757 904.475ZM467.149 904.475C464.046 904.475 461.607 903.335 459.834 901.055C458.061 898.775 457.174 895.656 457.174 891.697C457.174 889.291 457.586 887.201 458.409 885.427C459.232 883.622 460.404 882.229 461.924 881.247C463.444 880.266 465.233 879.775 467.292 879.775C470.11 879.775 472.327 880.82 473.942 882.91H474.037V868.755H479.404V897.777C479.404 900.976 479.452 903.05 479.547 904H474.512C474.448 903.367 474.417 902.242 474.417 900.627H474.322C473.593 901.767 472.564 902.702 471.234 903.43C469.936 904.127 468.574 904.475 467.149 904.475ZM468.147 900.295C469.92 900.295 471.329 899.772 472.374 898.727C473.451 897.682 473.989 896.273 473.989 894.5V889.797C473.989 888.056 473.435 886.631 472.327 885.522C471.25 884.382 469.857 883.812 468.147 883.812C466.342 883.812 464.948 884.509 463.967 885.902C463.017 887.296 462.542 889.259 462.542 891.793C462.542 894.484 463.032 896.574 464.014 898.062C464.996 899.551 466.373 900.295 468.147 900.295ZM489.557 904.475C488.48 904.475 487.593 904.127 486.897 903.43C486.232 902.702 485.899 901.783 485.899 900.675C485.899 899.598 486.232 898.712 486.897 898.015C487.593 897.318 488.48 896.97 489.557 896.97C490.633 896.97 491.504 897.318 492.169 898.015C492.866 898.68 493.214 899.567 493.214 900.675C493.214 901.783 492.866 902.702 492.169 903.43C491.504 904.127 490.633 904.475 489.557 904.475Z" fill="#22365D"/>
<path d="M3.6135 233.35H25.839V238.399H9.8505V247.259H24.156V252.308H9.8505V262.951H25.839V268H3.6135V233.35ZM51.7488 268.495C49.2738 268.495 46.9968 267.983 44.9178 266.96C42.8718 265.937 41.2053 264.485 39.9183 262.604L43.6308 259.04C44.6868 260.327 45.9738 261.383 47.4918 262.208C49.0428 263.033 50.5278 263.446 51.9468 263.446C53.6298 263.446 54.9663 263.05 55.9563 262.258C56.9793 261.466 57.4908 260.426 57.4908 259.139C57.4908 258.215 57.3258 257.456 56.9958 256.862C56.6658 256.235 56.0553 255.625 55.1643 255.031C54.2733 254.404 52.9038 253.628 51.0558 252.704C48.6138 251.516 46.6833 250.394 45.2643 249.338C43.8453 248.282 42.8058 247.16 42.1458 245.972C41.4858 244.784 41.1558 243.415 41.1558 241.864C41.1558 240.082 41.6178 238.514 42.5418 237.161C43.4988 235.775 44.8188 234.719 46.5018 233.993C48.1848 233.234 50.1318 232.855 52.3428 232.855C54.7518 232.855 56.8968 233.333 58.7778 234.29C60.6918 235.247 62.0943 236.551 62.9853 238.201L58.9758 241.171C58.1838 240.148 57.2268 239.356 56.1048 238.795C55.0158 238.201 53.8443 237.904 52.5903 237.904C50.9733 237.904 49.7028 238.25 48.7788 238.943C47.8878 239.603 47.4423 240.544 47.4423 241.765C47.4423 242.524 47.6403 243.184 48.0363 243.745C48.4653 244.273 49.2078 244.867 50.2638 245.527C51.3528 246.187 53.0028 247.045 55.2138 248.101C58.3488 249.586 60.5433 251.137 61.7973 252.754C63.0843 254.338 63.7278 256.334 63.7278 258.743C63.7278 260.69 63.2328 262.406 62.2428 263.891C61.2528 265.343 59.8503 266.482 58.0353 267.307C56.2203 268.099 54.1248 268.495 51.7488 268.495Z" fill="black"/>
<path d="M2.9205 327.248C5.1645 325.631 7.4415 323.7 9.7515 321.456C12.0945 319.212 14.0745 316.803 15.6915 314.229C17.3085 311.655 18.117 309.213 18.117 306.903C18.117 305.352 17.6715 304.131 16.7805 303.24C15.8895 302.316 14.685 301.854 13.167 301.854C11.616 301.854 10.131 302.267 8.712 303.092C7.326 303.884 6.204 304.956 5.346 306.309L1.98 302.745C3.102 300.897 4.653 299.462 6.633 298.439C8.613 297.383 10.8075 296.855 13.2165 296.855C16.7145 296.855 19.4535 297.729 21.4335 299.478C23.4465 301.227 24.453 303.636 24.453 306.705C24.453 312.282 20.0475 319.13 11.2365 327.248H25.74V332H2.9205V327.248ZM51.9537 332.495C47.9607 332.495 44.8917 330.977 42.7467 327.941C40.6347 324.905 39.5787 320.483 39.5787 314.675C39.5787 308.867 40.6347 304.445 42.7467 301.409C44.8917 298.373 47.9607 296.855 51.9537 296.855C55.9797 296.855 59.0487 298.373 61.1607 301.409C63.2727 304.445 64.3287 308.867 64.3287 314.675C64.3287 320.483 63.2727 324.905 61.1607 327.941C59.0487 330.977 55.9797 332.495 51.9537 332.495ZM51.9537 327.891C56.0457 327.891 58.0917 323.486 58.0917 314.675C58.0917 305.831 56.0457 301.409 51.9537 301.409C47.8947 301.409 45.8652 305.831 45.8652 314.675C45.8652 323.486 47.8947 327.891 51.9537 327.891Z" fill="black"/>
<path d="M750.237 366.003H739.792V361.35H766.918V366.003H756.474V396H750.237V366.003ZM781.722 361.35H793.602C798.255 361.35 801.753 362.752 804.096 365.557C806.472 368.329 807.66 372.471 807.66 377.982C807.66 382.272 807.132 385.737 806.076 388.377C805.02 391.017 803.37 392.947 801.126 394.168C798.882 395.389 795.929 396 792.266 396H781.722V361.35ZM793.008 390.951C796.011 390.951 798.156 389.944 799.443 387.931C800.763 385.918 801.423 382.602 801.423 377.982C801.423 373.923 800.78 370.986 799.493 369.171C798.239 367.323 796.226 366.399 793.454 366.399H787.959V390.951H793.008Z" fill="black"/>
<path d="M741.921 455.248C744.165 453.631 746.442 451.7 748.752 449.456C751.095 447.212 753.075 444.803 754.692 442.229C756.309 439.655 757.117 437.213 757.117 434.903C757.117 433.352 756.672 432.131 755.781 431.24C754.89 430.316 753.685 429.854 752.167 429.854C750.616 429.854 749.131 430.267 747.712 431.092C746.326 431.884 745.204 432.956 744.346 434.309L740.98 430.745C742.102 428.897 743.653 427.462 745.633 426.439C747.613 425.383 749.808 424.855 752.217 424.855C755.715 424.855 758.454 425.729 760.434 427.478C762.447 429.227 763.453 431.636 763.453 434.705C763.453 440.282 759.048 447.13 750.237 455.248H764.74V460H741.921V455.248ZM790.261 460.495C787.918 460.495 785.723 460.017 783.677 459.059C781.664 458.102 780.13 456.815 779.074 455.198L781.846 451.238C782.968 452.591 784.222 453.631 785.608 454.357C787.027 455.083 788.512 455.446 790.063 455.446C792.076 455.446 793.66 454.802 794.815 453.515C795.97 452.228 796.547 450.463 796.547 448.219C796.547 446.107 796.019 444.457 794.963 443.269C793.94 442.048 792.538 441.437 790.756 441.437C789.667 441.437 788.627 441.734 787.637 442.328C786.647 442.889 785.888 443.665 785.36 444.655H780.163L781.846 425.35H801.745V430.349H787.439L786.697 438.764C787.225 438.17 788.033 437.692 789.122 437.329C790.211 436.933 791.3 436.735 792.389 436.735C794.468 436.735 796.3 437.213 797.884 438.17C799.468 439.094 800.689 440.414 801.547 442.13C802.438 443.846 802.883 445.843 802.883 448.12C802.883 450.595 802.355 452.773 801.299 454.654C800.276 456.502 798.808 457.937 796.894 458.96C794.98 459.983 792.769 460.495 790.261 460.495Z" fill="black"/>
</svg>
